<svg width="94" height="94" viewBox="0 0 94 94" fill="none" xmlns="http://www.w3.org/2000/svg">
<mask id="path-1-inside-1_1607_5456" fill="white">
<path d="M24.4023 33.3928L44.9517 43.6674V20.5494L24.4023 7.70605V33.3928Z"/>
<path d="M47.5204 20.5494V43.6674L68.0697 33.3928V7.70605L47.5204 20.5494Z"/>
<path d="M68.0697 59.0795L47.5204 48.8048V74.4915L68.0697 84.7662V59.0795Z"/>
<path d="M44.9517 74.4915V48.8048L24.4023 59.0795V84.7662L44.9517 74.4915Z"/>
<path d="M68.0697 35.9614L47.5204 46.2361L68.0697 56.5108L91.1877 46.2361L68.0697 35.9614Z"/>
<path d="M24.4023 35.9614L44.9517 46.2361L21.8337 56.5108L1.2843 46.2361L24.4023 35.9614Z"/>
</mask>
<path d="M44.9517 43.6674L28.8693 75.8323L80.9131 101.854V43.6674H44.9517ZM24.4023 33.3928H-11.559V55.6181L8.31992 65.5576L24.4023 33.3928ZM24.4023 7.70605L43.4618 -22.7891L-11.559 -57.1772V7.70605H24.4023ZM44.9517 20.5494H80.9131V0.617898L64.0112 -9.94578L44.9517 20.5494ZM47.5204 43.6674H11.559V101.854L63.6028 75.8323L47.5204 43.6674ZM47.5204 20.5494L28.4609 -9.94578L11.559 0.617897V20.5494H47.5204ZM68.0697 7.70605H104.031V-57.1772L49.0102 -22.7891L68.0697 7.70605ZM68.0697 33.3928L84.1521 65.5576L104.031 55.6181V33.3928H68.0697ZM47.5204 48.8048L63.6028 16.6399L11.559 -9.38196V48.8048H47.5204ZM68.0697 59.0795H104.031V36.8541L84.1521 26.9146L68.0697 59.0795ZM68.0697 84.7662L51.9873 116.931L104.031 142.953V84.7662H68.0697ZM47.5204 74.4915H11.559V96.7168L31.4379 106.656L47.5204 74.4915ZM44.9517 48.8048H80.9131V-9.38197L28.8693 16.6399L44.9517 48.8048ZM44.9517 74.4915L61.0341 106.656L80.9131 96.7168V74.4915H44.9517ZM24.4023 84.7662H-11.559V142.953L40.4847 116.931L24.4023 84.7662ZM24.4023 59.0795L8.31991 26.9146L-11.559 36.8541V59.0795H24.4023ZM47.5204 46.2361L31.4379 14.0713L-32.8917 46.2361L31.4379 78.4009L47.5204 46.2361ZM68.0697 35.9614L82.675 3.0995L67.1667 -3.7931L51.9873 3.79659L68.0697 35.9614ZM91.1877 46.2361L105.793 79.098L179.732 46.2361L105.793 13.3742L91.1877 46.2361ZM68.0697 56.5108L51.9873 88.6756L67.1667 96.2653L82.675 89.3727L68.0697 56.5108ZM44.9517 46.2361L59.557 79.098L129.191 48.1496L61.0341 14.0713L44.9517 46.2361ZM24.4023 35.9614L40.4847 3.79659L25.3054 -3.7931L9.79703 3.0995L24.4023 35.9614ZM1.2843 46.2361L-13.321 13.3742L-82.9549 44.3226L-14.7981 78.4009L1.2843 46.2361ZM21.8337 56.5108L5.75125 88.6756L20.9306 96.2653L36.439 89.3727L21.8337 56.5108ZM61.0341 11.5026L40.4847 1.22792L8.31992 65.5576L28.8693 75.8323L61.0341 11.5026ZM60.3637 33.3928V7.70605H-11.559V33.3928H60.3637ZM5.34284 38.2012L25.8922 51.0446L64.0112 -9.94578L43.4618 -22.7891L5.34284 38.2012ZM8.99031 20.5494V43.6674H80.9131V20.5494H8.99031ZM83.4817 43.6674V20.5494H11.559V43.6674H83.4817ZM66.5798 51.0446L87.1292 38.2012L49.0102 -22.7891L28.4609 -9.94578L66.5798 51.0446ZM32.1083 7.70605V33.3928H104.031V7.70605H32.1083ZM51.9873 1.22792L31.4379 11.5026L63.6028 75.8323L84.1521 65.5576L51.9873 1.22792ZM31.4379 80.9696L51.9873 91.2443L84.1521 26.9146L63.6028 16.6399L31.4379 80.9696ZM32.1083 59.0795V84.7662H104.031V59.0795H32.1083ZM84.1521 52.6013L63.6028 42.3266L31.4379 106.656L51.9873 116.931L84.1521 52.6013ZM83.4817 74.4915V48.8048H11.559V74.4915H83.4817ZM8.99031 48.8048V74.4915H80.9131V48.8048H8.99031ZM28.8693 42.3266L8.31991 52.6013L40.4847 116.931L61.0341 106.656L28.8693 42.3266ZM60.3637 84.7662V59.0795H-11.559V84.7662H60.3637ZM40.4847 91.2443L61.0341 80.9696L28.8693 16.6399L8.31991 26.9146L40.4847 91.2443ZM63.6028 78.4009L84.1521 68.1263L51.9873 3.79659L31.4379 14.0713L63.6028 78.4009ZM53.4644 68.8233L76.5824 79.098L105.793 13.3742L82.675 3.0995L53.4644 68.8233ZM76.5825 13.3742L53.4644 23.6489L82.675 89.3727L105.793 79.098L76.5825 13.3742ZM84.1521 24.3459L63.6028 14.0713L31.4379 78.4009L51.9873 88.6756L84.1521 24.3459ZM61.0341 14.0713L40.4847 3.79659L8.31991 68.1263L28.8693 78.4009L61.0341 14.0713ZM9.79703 3.0995L-13.321 13.3742L15.8896 79.098L39.0076 68.8233L9.79703 3.0995ZM-14.7981 78.4009L5.75125 88.6756L37.9161 24.3459L17.3667 14.0713L-14.7981 78.4009ZM36.439 89.3727L59.557 79.098L30.3464 13.3742L7.22836 23.6489L36.439 89.3727Z" fill="url(#paint0_linear_1607_5456)" mask="url(#path-1-inside-1_1607_5456)"/>
<defs>
<linearGradient id="paint0_linear_1607_5456" x1="0.999879" y1="8" x2="90.9999" y2="85" gradientUnits="userSpaceOnUse">
<stop stop-color="white"/>
<stop offset="1" stop-color="white" stop-opacity="0"/>
</linearGradient>
</defs>
</svg>
