<svg width="94" height="94" viewBox="0 0 94 94" fill="none" xmlns="http://www.w3.org/2000/svg">
<g clip-path="url(#clip0_1607_10171)">
<path fill-rule="evenodd" clip-rule="evenodd" d="M83.7055 78.0602C83.7055 78.0602 71.8527 87.5665 48.266 83.6326C30.3711 80.6479 20.8268 60.9215 20.8268 50.3182C20.8268 25.1787 39.4333 19.4578 52.0126 19.4578C64.5917 19.4578 72.7978 31.7218 72.7978 41.2173C72.7978 50.7128 66.0819 59.0182 55.6305 59.0182C45.1792 59.0182 42.0839 51.6809 42.0839 44.9351C42.0839 38.1895 47.5415 35.8128 52.519 35.8128C57.4964 35.8128 59.2007 40.0623 59.2007 43.7145C59.2007 47.367 56.3669 48.6749 54.0033 48.6749C51.6397 48.6749 51.406 47.4824 50.5014 46.2292C49.5967 44.9762 51.6551 40.2329 48.266 40.2329C44.8769 40.2329 44.2451 45.6858 44.2451 45.6858C44.2451 45.6858 45.4807 56.2118 55.6305 56.0302C65.7805 55.8484 70.5956 48.0016 69.1962 40.2329C67.7969 32.4639 60.2572 24.2086 47.0249 25.8768C33.7926 27.5449 28.39 40.9149 30.7714 55.2029C33.1527 69.4911 50.2697 77.7697 63.7281 74.7913C77.1866 71.8128 90.591 62.0695 90.591 37.3664C90.591 12.6631 69.1962 -2.18578 43.685 0.261405C18.1737 2.70858 2.33745 25.0122 3.35111 51.8105C4.36477 78.6087 29.7932 93.2039 51.2955 93.9561C72.7978 94.7084 85.9797 82.2613 85.9797 82.2613C85.9797 82.2613 88.9441 79.6178 87.7818 77.5534C86.6197 75.4891 83.7055 78.0602 83.7055 78.0602Z" fill="url(#paint0_linear_1607_10171)"/>
</g>
<defs>
<linearGradient id="paint0_linear_1607_10171" x1="-5.43118" y1="7.04712" x2="67.1601" y2="112.618" gradientUnits="userSpaceOnUse">
<stop stop-color="white"/>
<stop offset="1" stop-color="white" stop-opacity="0"/>
</linearGradient>
<clipPath id="clip0_1607_10171">
<rect width="94" height="94" fill="white"/>
</clipPath>
</defs>
</svg>
