<svg width="94" height="94" viewBox="0 0 94 94" fill="none" xmlns="http://www.w3.org/2000/svg">
<g clip-path="url(#clip0_1607_783)">
<path fill-rule="evenodd" clip-rule="evenodd" d="M72.5439 44.9388C72.5386 44.9314 72.5364 44.9223 72.5378 44.9133L78.5347 9.94486C78.5375 9.92876 78.5516 9.91699 78.5678 9.91699H80.4658C80.4805 9.91699 80.4933 9.92648 80.4977 9.94044L94.0084 52.7184C94.0126 52.7316 94.008 52.7463 93.997 52.7549L84.0354 60.5325C84.0205 60.5441 83.999 60.5411 83.9878 60.5259L72.5439 44.9388ZM-0.18457 68.1203C-0.18457 68.1348 -0.175244 68.1476 -0.161458 68.1522L20.3733 74.8664C20.3833 74.8697 20.3943 74.8681 20.4029 74.8622L66.303 43.1739C66.3107 43.1686 66.3158 43.1603 66.3171 43.1511L71.2393 10.1242C71.2424 10.1039 71.2266 10.0857 71.2062 10.0857H30.5501C30.54 10.0857 30.5307 10.0901 30.5242 10.0978L-0.176855 47.134C-0.181842 47.1401 -0.18457 47.1476 -0.18457 47.1555V68.1203ZM28.9303 76.5771L51.3641 83.9258C51.3742 83.9291 51.3854 83.9275 51.3941 83.9212L78.1031 64.7627C78.118 64.7522 78.1217 64.7318 78.1115 64.7168L68.0991 49.8172C68.0886 49.8016 68.0677 49.7976 68.0523 49.8082L28.9303 76.5771Z" fill="url(#paint0_linear_1607_783)"/>
</g>
<defs>
<linearGradient id="paint0_linear_1607_783" x1="-9.61241" y1="15.4669" x2="39.4626" y2="113.278" gradientUnits="userSpaceOnUse">
<stop stop-color="white"/>
<stop offset="1" stop-color="white" stop-opacity="0"/>
</linearGradient>
<clipPath id="clip0_1607_783">
<rect width="94" height="94" fill="white"/>
</clipPath>
</defs>
</svg>
