<svg width="14" height="14" viewBox="0 0 14 14" fill="none" xmlns="http://www.w3.org/2000/svg">
<g clip-path="url(#clip0_1607_9805)">
<path fill-rule="evenodd" clip-rule="evenodd" d="M6.4784 12.0795C6.72649 12.1174 6.98058 12.1371 7.2393 12.1371C9.99395 12.1371 12.227 9.90405 12.227 7.14941C12.227 4.39473 9.99395 2.16165 7.2393 2.16165C7.05449 2.16165 6.872 2.1717 6.69242 2.19129C8.05887 3.22653 8.96233 5.01985 8.96233 7.05871C8.96233 9.20219 7.96376 11.0743 6.4784 12.0795ZM7.14861 13.5881C10.7547 13.5881 13.678 10.6648 13.678 7.05871C13.678 3.45261 10.7547 0.529297 7.14861 0.529297C3.54251 0.529297 0.619202 3.45261 0.619202 7.05871C0.619202 10.6648 3.54251 13.5881 7.14861 13.5881Z" fill="#5A5465"/>
</g>
<defs>
<clipPath id="clip0_1607_9805">
<rect width="13.0588" height="13.0588" fill="white" transform="translate(0.627563 0.529297)"/>
</clipPath>
</defs>
</svg>
