<svg width="14" height="14" viewBox="0 0 14 14" fill="none" xmlns="http://www.w3.org/2000/svg">
<g clip-path="url(#clip0_1607_7280)">
<path fill-rule="evenodd" clip-rule="evenodd" d="M2.87813 1.61495C3.03617 0.990982 3.60145 0.529297 4.27454 0.529297C4.77942 0.529297 5.22365 0.789063 5.48085 1.18224H5.90202C6.16368 0.913706 6.52925 0.746944 6.9338 0.746944C7.5269 0.746944 8.0363 1.10542 8.25712 1.61753H8.60974C8.83069 1.47959 9.09177 1.39988 9.37144 1.39988C9.96457 1.39988 10.4739 1.75836 10.6948 2.27047H11.6536C11.6618 2.27047 11.6695 2.27268 11.6761 2.27653C11.7199 2.27252 11.7643 2.27047 11.8091 2.27047C12.6046 2.27047 13.2495 2.91537 13.2495 3.71091V8.03011L13.2495 8.03812L13.2495 8.04613V8.10834C13.2495 8.13468 13.2488 8.16093 13.2474 8.18705C13.1607 11.1834 10.4664 13.5881 7.15539 13.5881C3.78971 13.5881 1.06128 11.1033 1.06128 8.03812C1.06128 6.55857 1.697 5.21423 2.73326 4.21931C2.73067 5.66172 2.75503 7.15293 2.86734 7.12734C3.16806 7.05878 2.93311 2.59115 2.87813 1.61495Z" fill="#CE416B"/>
</g>
<defs>
<clipPath id="clip0_1607_7280">
<rect width="13.0588" height="13.0588" fill="white" transform="translate(0.627563 0.529297)"/>
</clipPath>
</defs>
</svg>
