<svg width="14" height="14" viewBox="0 0 14 14" fill="none" xmlns="http://www.w3.org/2000/svg">
<g clip-path="url(#clip0_1607_3854)">
<path fill-rule="evenodd" clip-rule="evenodd" d="M10.0379 13.5439C8.85995 13.6042 7.5114 13.6042 7.05312 13.5439C3.47831 13.0736 0.627563 10.4599 0.627563 6.92706C0.627563 3.39421 3.55088 0.530273 7.15697 0.530273C10.7631 0.530273 13.6864 3.39421 13.6864 6.92706C13.6864 8.57015 13.054 10.0685 12.0148 11.2014C11.7325 11.5091 12.1198 11.7248 12.5132 11.9441C12.899 12.1591 13.2908 12.3775 13.0631 12.6891C12.8122 13.0324 11.4519 13.4715 10.0379 13.5439ZM6.23878 6.12746C6.23878 6.67945 5.782 7.12694 5.21856 7.12694C4.65511 7.12694 4.19833 6.67945 4.19833 6.12746C4.19833 5.75725 4.40378 5.43406 4.70906 5.26132C4.72663 5.74263 5.12237 6.12743 5.608 6.12743H6.23878V6.12746ZM9.40085 5.26132C9.38327 5.74263 8.98753 6.12743 8.5019 6.12743H7.87113V6.12746C7.87113 6.67945 8.32791 7.12694 8.89135 7.12694C9.45479 7.12694 9.91157 6.67945 9.91157 6.12746C9.91157 5.75725 9.70612 5.43406 9.40085 5.26132Z" fill="#5269AD"/>
</g>
<defs>
<clipPath id="clip0_1607_3854">
<rect width="13.0588" height="13.0588" fill="white" transform="translate(0.627563 0.530273)"/>
</clipPath>
</defs>
</svg>
