<svg width="14" height="14" viewBox="0 0 14 14" fill="none" xmlns="http://www.w3.org/2000/svg">
<g clip-path="url(#clip0_1607_651)">
<path fill-rule="evenodd" clip-rule="evenodd" d="M3.11213 11.7695C3.0673 11.7273 3.02298 11.6843 2.97916 11.6405C0.666207 9.32757 0.666207 5.57752 2.97916 3.26457C5.29211 0.951609 12.6621 0.796875 12.6621 0.796875C12.6621 0.796875 13.6681 9.32757 11.3551 11.6405C9.30091 13.6947 6.11318 13.9245 3.80536 12.3299L5.66492 10.0479L8.63759 9.40615L6.21102 9.16356L7.75313 7.59339L9.50852 7.20885L8.12046 6.79778L9.50852 4.29375L7.53414 6.50834L6.77171 5.43244L7.0401 7.20885L5.66492 8.75912L5.02746 6.79775V9.40615L3.11213 11.7695Z" fill="#63BC5A"/>
</g>
<defs>
<clipPath id="clip0_1607_651">
<rect width="13.0588" height="13.0588" fill="white" transform="translate(0.627563 0.530273)"/>
</clipPath>
</defs>
</svg>
