<svg width="14" height="14" viewBox="0 0 14 14" fill="none" xmlns="http://www.w3.org/2000/svg">
<g clip-path="url(#clip0_1607_8608)">
<path fill-rule="evenodd" clip-rule="evenodd" d="M3.50379 11.7452C3.50024 11.7452 3.49777 11.7417 3.49894 11.7384L6.8329 2.31787C6.83364 2.31582 6.83558 2.31445 6.83774 2.31445L10.3968 2.31445C10.399 2.31445 10.401 2.31583 10.4017 2.31789L13.6862 11.7384C13.6873 11.7417 13.6849 11.7452 13.6813 11.7452H3.60398H3.50379ZM0.63282 11.7821C0.629239 11.7821 0.62676 11.7785 0.628016 11.7752L3.11071 5.14699C3.11147 5.14498 3.11338 5.14365 3.11552 5.14365H5.2727C5.27627 5.14365 5.27874 5.1472 5.27752 5.15054L2.87682 11.7787C2.87609 11.7807 2.87416 11.7821 2.872 11.7821H0.63282Z" fill="#D97845"/>
</g>
<defs>
<clipPath id="clip0_1607_8608">
<rect width="13.0588" height="13.0588" fill="white" transform="translate(0.627563 0.529297)"/>
</clipPath>
</defs>
</svg>
