<svg width="14" height="14" viewBox="0 0 14 14" fill="none" xmlns="http://www.w3.org/2000/svg">
<g clip-path="url(#clip0_1607_658)">
<path fill-rule="evenodd" clip-rule="evenodd" d="M11.657 10.5644C12.9757 9.50999 13.8041 7.9865 13.8041 6.29227C13.8041 3.10946 10.8807 0.529297 7.27465 0.529297C3.66855 0.529297 0.745239 3.10946 0.745239 6.29227C0.745239 7.92533 1.51483 9.39976 2.75138 10.4484C2.67644 10.7072 2.63533 10.9886 2.63533 11.2829C2.63533 12.556 3.40462 13.5881 4.35361 13.5881C4.97023 13.5881 5.51099 13.1524 5.81413 12.4979C6.11726 13.1524 6.65803 13.5881 7.27465 13.5881C7.83674 13.5881 8.33578 13.226 8.64927 12.6663C8.96276 13.226 9.4618 13.5881 10.0239 13.5881C10.9728 13.5881 11.7421 12.556 11.7421 11.2829C11.7421 11.0321 11.7123 10.7905 11.657 10.5644ZM11.0548 6.40656C11.0548 8.02243 9.32392 9.33237 7.18875 9.33237C5.05355 9.33237 3.32265 8.02243 3.32265 6.40656C3.32265 4.79068 5.05355 3.48074 7.18875 3.48074C9.32392 3.48074 11.0548 4.79068 11.0548 6.40656Z" fill="#B567CE"/>
</g>
<defs>
<clipPath id="clip0_1607_658">
<rect width="13.0588" height="13.0588" fill="white" transform="translate(0.745239 0.529297)"/>
</clipPath>
</defs>
</svg>
