<svg width="14" height="14" viewBox="0 0 14 14" fill="none" xmlns="http://www.w3.org/2000/svg">
<g clip-path="url(#clip0_1607_10183)">
<path fill-rule="evenodd" clip-rule="evenodd" d="M12.2563 11.3738C12.2563 11.3738 10.6097 12.6945 7.33291 12.148C4.84689 11.7333 3.52096 8.99287 3.52096 7.51982C3.52096 4.02735 6.10584 3.23257 7.8534 3.23257C9.60094 3.23257 10.741 4.93634 10.741 6.25549C10.741 7.57463 9.80797 8.72845 8.35601 8.72845C6.90409 8.72845 6.47407 7.70912 6.47407 6.77197C6.47407 5.83485 7.23227 5.50468 7.92375 5.50468C8.61523 5.50468 8.85199 6.09503 8.85199 6.60241C8.85199 7.10982 8.45832 7.29152 8.12996 7.29152C7.8016 7.29152 7.76913 7.12586 7.64347 6.95176C7.51778 6.77769 7.80374 6.11873 7.33291 6.11873C6.86208 6.11873 6.77432 6.87627 6.77432 6.87627C6.77432 6.87627 6.94597 8.33857 8.35601 8.31335C9.76609 8.2881 10.435 7.19799 10.2406 6.11873C10.0462 5.03944 8.99878 3.89258 7.16049 4.12432C5.32221 4.35607 4.57166 6.21348 4.90249 8.19842C5.23332 10.1834 7.61128 11.3335 9.48096 10.9197C11.3507 10.5059 13.2128 9.15235 13.2128 5.72051C13.2128 2.28864 10.2406 0.225776 6.6965 0.565748C3.15238 0.905718 0.952352 4.00422 1.09317 7.72713C1.23399 11.45 4.7666 13.4777 7.75378 13.5821C10.741 13.6867 12.5722 11.9575 12.5722 11.9575C12.5722 11.9575 12.9841 11.5902 12.8226 11.3034C12.6611 11.0167 12.2563 11.3738 12.2563 11.3738Z" fill="#FA7179"/>
</g>
<defs>
<clipPath id="clip0_1607_10183">
<rect width="13.0588" height="13.0588" fill="white" transform="translate(0.627563 0.529297)"/>
</clipPath>
</defs>
</svg>
