<svg width="14" height="14" viewBox="0 0 14 14" fill="none" xmlns="http://www.w3.org/2000/svg">
<g clip-path="url(#clip0_1607_1202)">
<path fill-rule="evenodd" clip-rule="evenodd" d="M0.628989 7.02114C0.627252 7.01818 0.627251 7.01451 0.628987 7.01152L3.91267 1.40119C3.91438 1.39827 3.91751 1.39648 3.92088 1.39648L10.4293 1.39648C10.4327 1.39648 10.4358 1.39829 10.4375 1.40123L13.6852 7.01157C13.6869 7.01451 13.6869 7.01815 13.6852 7.02109L10.4375 12.6251C10.4358 12.6281 10.4327 12.6299 10.4293 12.6299H3.92088C3.91751 12.6299 3.91438 12.6281 3.91267 12.6252L0.628989 7.02114ZM10.1825 7.01318C10.1825 8.68348 8.82842 10.0375 7.15812 10.0375C5.48781 10.0375 4.13375 8.68348 4.13375 7.01318C4.13375 5.34285 5.48781 3.98881 7.15812 3.98881C8.82842 3.98881 10.1825 5.34285 10.1825 7.01318Z" fill="#5A8EA2"/>
</g>
<defs>
<clipPath id="clip0_1607_1202">
<rect width="13.0588" height="13.0588" fill="white" transform="translate(0.627563 0.529297)"/>
</clipPath>
</defs>
</svg>
