<svg width="94" height="94" viewBox="0 0 94 94" fill="none" xmlns="http://www.w3.org/2000/svg">
<path fill-rule="evenodd" clip-rule="evenodd" d="M17.8862 80.9028C17.5636 80.5993 17.2445 80.29 16.9291 79.9746C0.27998 63.3255 0.279983 36.3319 16.9291 19.6829C33.5781 3.03373 86.6287 1.91992 86.6287 1.91992C86.6287 1.91992 93.87 63.3255 77.2209 79.9746C62.4343 94.7612 39.4884 96.4154 22.8763 84.9373L36.2617 68.511L57.6596 63.8912L40.1926 62.145L51.2931 50.8426L63.9288 48.0746L53.9372 45.1156L63.9288 27.0911L49.7168 43.0322L44.2286 35.2876L46.1606 48.0746L36.2617 59.2338L31.6732 45.1154V63.8912L17.8862 80.9028Z" fill="url(#paint0_linear_1607_638)"/>
<defs>
<linearGradient id="paint0_linear_1607_638" x1="-3.94055" y1="8.70944" x2="66.0855" y2="110.15" gradientUnits="userSpaceOnUse">
<stop stop-color="white"/>
<stop offset="1" stop-color="white" stop-opacity="0"/>
</linearGradient>
</defs>
</svg>
