<svg width="14" height="14" viewBox="0 0 14 14" fill="none" xmlns="http://www.w3.org/2000/svg">
<g clip-path="url(#clip0_1607_825)">
<path fill-rule="evenodd" clip-rule="evenodd" d="M9.35565 0.542082C9.36516 0.528521 9.38383 0.525225 9.3974 0.534721L10.3246 1.18398C10.3382 1.19347 10.3415 1.21216 10.332 1.22572L9.04145 3.06881C9.66886 3.26925 10.0963 3.48546 10.0963 3.48546C10.0963 3.48546 9.0515 5.28263 7.2794 5.28263C5.5073 5.28263 4.24807 3.60763 4.24807 3.60763C4.24807 3.60763 4.69457 3.32269 5.35644 3.07829L3.94088 1.39132C3.93024 1.37864 3.9319 1.35973 3.94458 1.34909L4.81169 0.62149C4.82439 0.610849 4.84329 0.612503 4.85393 0.625185L6.64625 2.76119C6.79972 2.74383 6.95607 2.73413 7.11384 2.73413C7.34061 2.73413 7.5671 2.75137 7.78821 2.78063L9.35565 0.542082ZM9.70625 5.36774C10.1791 5.03 10.8947 4.14848 10.8947 4.14848C10.8947 4.14848 12.7226 5.59694 12.7226 8.66821C12.7226 11.7395 9.56252 13.5879 9.56252 13.5879C9.56252 13.5879 8.05273 12.0632 7.68208 10.1303C7.31146 8.1975 8.23035 6.05132 8.23035 6.05132C8.23035 6.05132 9.23333 5.70549 9.70625 5.36774ZM4.61323 5.36774C4.14033 5.03 3.42475 4.14848 3.42475 4.14848C3.42475 4.14848 1.59692 5.59694 1.59692 8.66821C1.59692 11.7395 4.75695 13.5879 4.75695 13.5879C4.75695 13.5879 6.26675 12.0632 6.6374 10.1303C7.00802 8.1975 6.08913 6.05132 6.08913 6.05132C6.08913 6.05132 5.08615 5.70549 4.61323 5.36774Z" fill="#91C12F"/>
</g>
<defs>
<clipPath id="clip0_1607_825">
<rect width="13.0588" height="13.0588" fill="white" transform="translate(0.627563 0.529297)"/>
</clipPath>
</defs>
</svg>
