<svg width="14" height="14" viewBox="0 0 14 14" fill="none" xmlns="http://www.w3.org/2000/svg">
<g clip-path="url(#clip0_1607_10015)">
<path fill-rule="evenodd" clip-rule="evenodd" d="M7.78712 7.03114C7.87562 6.97717 7.95071 6.86408 8.01126 6.73839C8.80818 7.0641 9.36821 7.83375 9.36821 8.73132C9.36821 9.9237 8.37987 10.8903 7.1607 10.8903C6.66024 10.8903 6.19866 10.7274 5.8284 10.4529C5.70694 10.3954 5.60701 10.3402 5.52524 10.2949C5.3984 10.2248 5.31523 10.1788 5.26315 10.186C5.1109 10.207 5.1551 10.3471 5.19528 10.4743C5.22254 10.5608 5.24797 10.6413 5.20861 10.6745C5.16745 10.7093 5.03411 10.5821 4.87829 10.4336C4.66619 10.2314 4.41246 9.98945 4.29281 10.0621C4.19821 10.1196 4.29006 10.2754 4.40249 10.4662L4.41083 10.4804C4.45832 10.561 4.51336 10.6432 4.56358 10.7181C4.66568 10.8704 4.74791 10.9931 4.70677 11.0139C4.65703 11.039 4.31051 10.8051 4.0185 10.4804C3.90579 10.3551 3.79663 10.2192 3.69517 10.093V10.093C3.47309 9.81665 3.28807 9.58646 3.18422 9.61373C3.05928 9.64653 3.15379 9.90424 3.29267 10.1522C3.3576 10.2682 3.43399 10.3863 3.50013 10.4885V10.4886C3.60299 10.6476 3.68106 10.7682 3.65275 10.7831C3.61455 10.8031 3.27836 10.4752 3.05002 10.0621C2.91439 9.81673 2.80051 9.54555 2.70831 9.32603C2.60833 9.08793 2.53385 8.91059 2.48481 8.89274C2.31441 8.83074 2.31441 9.17815 2.38275 9.67956C2.39167 9.74498 2.40494 9.81359 2.42129 9.88345C3.08403 12.0278 5.11991 13.5891 7.52862 13.5891C10.4749 13.5891 12.8634 11.2531 12.8634 8.37148C12.8634 5.62883 10.6998 3.38044 7.95081 3.16994C7.95428 3.04074 8.02172 2.78453 8.02172 2.78453C8.02172 2.78453 8.50701 1.61036 8.53267 1.35946C8.53436 1.3428 8.53637 1.32471 8.53854 1.30543C8.56876 1.03434 8.625 0.530273 8.19136 0.530273C7.95977 0.530273 7.85208 0.702554 7.72892 0.899591V0.899593C7.68163 0.975235 7.63205 1.05453 7.57231 1.12912C7.14209 1.66638 6.41865 2.33731 6.00844 2.69475C5.14141 3.45025 4.29075 4.07115 3.79461 4.43328L3.79459 4.43331C3.56894 4.59799 3.41665 4.70917 3.36951 4.75511C3.01432 5.10137 1.74078 7.39855 1.74078 7.39855C1.74078 7.39855 1.32893 8.13556 1.47532 8.28505C1.62171 8.43451 1.97472 8.40025 1.97472 8.40025C1.97472 8.40025 6.71724 7.31227 7.14183 7.22646C7.25615 7.20336 7.33685 7.19002 7.3988 7.17979C7.56701 7.15201 7.59721 7.14702 7.78712 7.03114ZM4.43399 5.63301C4.17942 5.87498 3.75722 6.45255 3.75722 6.45255C3.75722 6.45255 4.54188 6.50088 4.97402 6.09012C5.40618 5.67933 5.30717 4.97928 5.30717 4.97928C5.30717 4.97928 4.68853 5.39104 4.43399 5.63301Z" fill="#0B6DC3"/>
</g>
<defs>
<clipPath id="clip0_1607_10015">
<rect width="13.0588" height="13.0588" fill="white" transform="translate(0.627563 0.530273)"/>
</clipPath>
</defs>
</svg>
