<svg width="14" height="14" viewBox="0 0 14 14" fill="none" xmlns="http://www.w3.org/2000/svg">
<g clip-path="url(#clip0_1607_9322)">
<path fill-rule="evenodd" clip-rule="evenodd" d="M3.24764 10.885L5.34221 10.2776L7.15131 13.5854C7.15368 13.5897 7.15983 13.5897 7.16218 13.5854L8.97128 10.2776L11.0659 10.885C11.0706 10.8863 11.0749 10.8819 11.0735 10.8772L10.4661 8.82413L13.6827 7.06489C13.687 7.06254 13.687 7.05639 13.6827 7.05405L10.4396 5.28029L11.0735 3.13757C11.0749 3.13288 11.0706 3.12852 11.0659 3.12987L8.92216 3.75147L7.16218 0.533492C7.15983 0.529201 7.15368 0.529201 7.15134 0.533492L5.39136 3.75147L3.24764 3.12987C3.24295 3.12852 3.23859 3.13288 3.23999 3.13757L3.87393 5.28029L0.630782 7.05405C0.626491 7.05639 0.626491 7.06254 0.630782 7.06489L3.8474 8.82413L3.23999 10.8772C3.23859 10.8819 3.24295 10.8863 3.24764 10.885ZM4.87301 7.08203L6.35689 7.89359L7.16845 9.37745C7.1708 9.38176 7.17697 9.38176 7.17932 9.37745L7.99088 7.89359L9.47474 7.08203C9.47902 7.07968 9.47902 7.07351 9.47474 7.07116L7.99088 6.2596L7.17932 4.77574C7.17697 4.77143 7.1708 4.77143 7.16845 4.77574L6.35689 6.2596L4.87301 7.07116C4.86872 7.07351 4.86872 7.07968 4.87301 7.08203Z" fill="#EC8FE6"/>
</g>
<defs>
<clipPath id="clip0_1607_9322">
<rect width="13.0588" height="13.0588" fill="white" transform="translate(0.627563 0.530273)"/>
</clipPath>
</defs>
</svg>
