<svg width="14" height="14" viewBox="0 0 14 14" fill="none" xmlns="http://www.w3.org/2000/svg">
<g clip-path="url(#clip0_1607_709)">
<path fill-rule="evenodd" clip-rule="evenodd" d="M9.61224 10.615C9.77359 10.025 9.46041 8.81217 9.46041 8.81217C9.46041 8.81217 9.23326 9.80023 8.87832 10.1654C8.57552 10.4769 8.20454 10.693 7.6725 10.7497C8.10749 10.5385 8.40665 10.0979 8.40665 9.58868C8.40665 8.87387 7.81716 8.29438 7.09 8.29438C6.36284 8.29438 5.77333 8.87387 5.77333 9.58868C5.77333 9.7839 5.81733 9.96905 5.89606 10.135C5.44125 9.77271 5.36973 9.19179 5.36973 9.19179C5.36973 9.19179 4.86187 11.3003 6.26125 12.2922C7.66061 13.284 10.4019 12.4315 10.4019 12.4315C10.4019 12.4315 6.47894 15.1918 3.57198 12.1876C1.06786 9.59962 2.9184 6.19257 2.9184 6.19257C2.9184 6.19257 2.83848 6.50864 2.83848 6.87553C2.83848 7.24243 3.03741 7.52159 3.03741 7.52159C3.03741 7.52159 3.63079 6.27082 4.09259 5.76217C4.52966 5.28078 5.07754 4.89034 5.55077 4.5531C5.91504 4.29351 6.23508 4.06544 6.42622 3.85168C7.47901 2.67449 6.83349 0.530273 6.83349 0.530273C6.83349 0.530273 8.02026 1.57651 8.35158 2.92774C8.47788 3.4428 8.39662 4.02884 8.32398 4.5529C8.20605 5.40366 8.11073 6.09111 8.96274 6.0465C10.3396 5.9744 9.14315 3.85168 9.14315 3.85168C9.14315 3.85168 12.2663 5.49321 12.033 8.36416C11.7997 11.2351 8.61921 11.8878 8.61921 11.8878C8.61921 11.8878 9.45087 11.205 9.61224 10.615Z" fill="#FF9D55"/>
</g>
<defs>
<clipPath id="clip0_1607_709">
<rect width="13.0588" height="13.0588" fill="white" transform="translate(0.627563 0.530273)"/>
</clipPath>
</defs>
</svg>
