<svg width="14" height="14" viewBox="0 0 14 14" fill="none" xmlns="http://www.w3.org/2000/svg">
<g clip-path="url(#clip0_1607_3969)">
<path fill-rule="evenodd" clip-rule="evenodd" d="M5.18583 12.7141C7.09882 12.7141 8.73658 11.6509 9.4127 10.1438C9.42097 10.1254 6.69817 10.8514 6.785 10.5947C6.82376 10.4801 8.49285 9.87038 9.70887 9.15919C10.4078 8.75041 10.7297 7.88509 10.7297 7.88509C10.7297 7.88509 9.55214 8.45679 8.95687 8.60182C7.75729 8.89411 6.70134 8.86264 6.70134 8.83218C6.70134 8.76633 8.45471 8.43317 10.8917 6.94812C12.038 6.2496 12.3494 5.0464 12.3494 5.0464C12.3494 5.0464 11.0891 5.79708 10.3273 6.04491C8.52054 6.63264 6.87182 6.80975 6.87182 6.73022C6.87182 6.55995 8.32275 6.16096 9.86109 5.41557C10.6609 5.02801 11.3536 4.52167 12.1564 3.95859C13.4699 3.0373 13.6865 1.39648 13.6865 1.39648C13.6865 1.39648 12.391 2.23205 11.7588 2.50953C9.15012 3.65451 6.84667 4.25512 5.18583 4.38514C2.67874 4.58143 0.627686 6.33068 0.627686 8.60182C0.627686 10.873 2.66843 12.7141 5.18583 12.7141Z" fill="#89AAE3"/>
</g>
<defs>
<clipPath id="clip0_1607_3969">
<rect width="13.0588" height="13.0588" fill="white" transform="translate(0.627563 0.529297)"/>
</clipPath>
</defs>
</svg>
