<svg width="14" height="14" viewBox="0 0 14 14" fill="none" xmlns="http://www.w3.org/2000/svg">
<g clip-path="url(#clip0_1607_5468)">
<path fill-rule="evenodd" clip-rule="evenodd" d="M10.4292 1.52637L10.4694 5.05506L7.39165 6.53252L7.3537 3.20076L10.4292 1.52637Z" fill="#73CEC0"/>
<path fill-rule="evenodd" clip-rule="evenodd" d="M13.5146 7.08667L10.4678 8.82939L7.41925 7.08392L10.4662 5.4834L13.5146 7.08667Z" fill="#73CEC0"/>
<path fill-rule="evenodd" clip-rule="evenodd" d="M6.87751 7.08667L3.83075 8.82939L0.782166 7.08392L3.82917 5.4834L6.87751 7.08667Z" fill="#73CEC0"/>
<path fill-rule="evenodd" clip-rule="evenodd" d="M3.79639 1.51172L6.95871 3.0779L6.87786 6.49095L3.89203 5.01219L3.79639 1.51172Z" fill="#73CEC0"/>
<path fill-rule="evenodd" clip-rule="evenodd" d="M10.5157 12.6082L7.35333 11.042L7.43419 7.62891L10.42 9.10769L10.5157 12.6082Z" fill="#73CEC0"/>
<path fill-rule="evenodd" clip-rule="evenodd" d="M3.90568 12.6399L3.86548 9.11125L6.94325 7.63379L6.98121 10.9655L3.90568 12.6399Z" fill="#73CEC0"/>
</g>
<defs>
<clipPath id="clip0_1607_5468">
<rect width="13.0588" height="13.0588" fill="white" transform="translate(0.627563 0.530273)"/>
</clipPath>
</defs>
</svg>
