<svg width="14" height="14" viewBox="0 0 14 14" fill="none" xmlns="http://www.w3.org/2000/svg">
<g clip-path="url(#clip0_1607_796)">
<path fill-rule="evenodd" clip-rule="evenodd" d="M10.7059 6.77161C10.7051 6.77058 10.7048 6.76931 10.705 6.76806L11.5381 1.91012C11.5385 1.90788 11.5405 1.90625 11.5427 1.90625L11.8064 1.90625C11.8085 1.90625 11.8102 1.90757 11.8108 1.90951L13.6878 7.85238C13.6884 7.85421 13.6877 7.85625 13.6862 7.85745L12.3023 8.93794C12.3002 8.93955 12.2973 8.93914 12.2957 8.93702L10.7059 6.77161ZM0.602173 9.99206C0.602173 9.99407 0.603468 9.99586 0.605384 9.9965L3.45815 10.9293C3.45953 10.9297 3.46106 10.9295 3.46226 10.9287L9.83887 6.52642C9.83994 6.52568 9.84065 6.52453 9.84083 6.52326L10.5246 1.93503C10.5251 1.93221 10.5229 1.92968 10.52 1.92968H4.87195C4.87055 1.92968 4.86924 1.9303 4.86835 1.93137L0.603245 7.07657C0.602552 7.07742 0.602173 7.07846 0.602173 7.07956L0.602173 9.99206ZM4.64691 11.1669L7.76351 12.1878C7.76491 12.1883 7.76647 12.1881 7.76766 12.1872L11.4782 9.52561C11.4802 9.52416 11.4808 9.52133 11.4794 9.51924L10.0884 7.44934C10.0869 7.44717 10.084 7.44661 10.0819 7.44809L4.64691 11.1669Z" fill="#C5B78C"/>
</g>
<defs>
<clipPath id="clip0_1607_796">
<rect width="13.0588" height="13.0588" fill="white" transform="translate(0.627563 0.529297)"/>
</clipPath>
</defs>
</svg>
