<svg width="14" height="14" viewBox="0 0 14 14" fill="none" xmlns="http://www.w3.org/2000/svg">
<g clip-path="url(#clip0_1607_8482)">
<path fill-rule="evenodd" clip-rule="evenodd" d="M4.51894 0.54516C4.51642 0.537873 4.52185 0.530273 4.52955 0.530273L9.11619 0.530273C9.12111 0.530273 9.12547 0.533477 9.12692 0.538175L11.2336 7.34461C11.2358 7.35182 11.2305 7.35914 11.2229 7.35914H8.16939C8.16567 7.35914 8.16299 7.36269 8.16401 7.36629L9.91527 13.5311C9.91869 13.5431 9.903 13.5509 9.89553 13.5409L3.08986 4.49044C3.0843 4.48304 3.08957 4.47248 3.09882 4.47248H5.87012C5.87398 4.47248 5.87668 4.46868 5.8754 4.46503L4.51894 0.54516Z" fill="#F4D23C"/>
</g>
<defs>
<clipPath id="clip0_1607_8482">
<rect width="13.0588" height="13.0588" fill="white" transform="translate(0.627563 0.530273)"/>
</clipPath>
</defs>
</svg>
