<svg width="14" height="14" viewBox="0 0 14 14" fill="none" xmlns="http://www.w3.org/2000/svg">
<g clip-path="url(#clip0_1607_8461)">
<path fill-rule="evenodd" clip-rule="evenodd" d="M11.3954 9.36832C11.3954 11.6991 9.49887 13.5885 7.15933 13.5885C4.81978 13.5885 2.92322 11.6991 2.92322 9.36832C2.92322 7.10149 6.93018 0.87582 7.14994 0.536084C7.15496 0.528337 7.16371 0.528337 7.16871 0.536084C7.38847 0.87582 11.3954 7.10149 11.3954 9.36832ZM6.45318 12.2355C4.30358 11.7652 4.67142 9.384 4.67142 9.384C4.67142 9.384 5.2584 10.8214 6.68286 11.2871C8.10729 11.7527 9.82871 11.0698 9.82871 11.0698C9.82871 11.0698 8.60278 12.7059 6.45318 12.2355Z" fill="#5090D6"/>
</g>
<defs>
<clipPath id="clip0_1607_8461">
<rect width="13.0588" height="13.0588" fill="white" transform="translate(0.627563 0.530273)"/>
</clipPath>
</defs>
</svg>
