<svg width="94" height="94" viewBox="0 0 94 94" fill="none" xmlns="http://www.w3.org/2000/svg">
<path fill-rule="evenodd" clip-rule="evenodd" d="M20.7028 80.7351C20.6773 80.7351 20.6594 80.71 20.6679 80.6859L44.6664 12.8752C44.6717 12.8604 44.6856 12.8506 44.7012 12.8506H70.3203C70.3359 12.8506 70.35 12.8605 70.3552 12.8754L93.9976 80.6861C94.0059 80.7102 93.9881 80.7351 93.9628 80.7351H21.4239H20.7028ZM0.0369585 81.0004C0.0111831 81.0004 -0.00666173 80.9747 0.00237951 80.9507L17.8733 33.2398C17.8787 33.2253 17.8925 33.2157 17.9079 33.2157H33.4357C33.4614 33.2157 33.4792 33.2412 33.4704 33.2653L16.1897 80.9762C16.1844 80.9907 16.1706 81.0004 16.155 81.0004H0.0369585Z" fill="url(#paint0_linear_1607_8596)"/>
<defs>
<linearGradient id="paint0_linear_1607_8596" x1="-9.40834" y1="17.961" x2="33.5728" y2="110.801" gradientUnits="userSpaceOnUse">
<stop stop-color="white"/>
<stop offset="1" stop-color="white" stop-opacity="0"/>
</linearGradient>
</defs>
</svg>
